<?xml version="1.0" encoding="UTF-8"?>
<svg version="1.1" xmlns="http://www.w3.org/2000/svg" width="593" height="513">
<path d="M0 0 C19.66951177 6.90928169 39.31797484 13.87774859 58.95483398 20.87927246 C61.36653774 21.7389222 63.77847738 22.59791049 66.19067383 23.45617676 C67.34784912 23.86799194 68.50502441 24.27980713 69.69726562 24.70410156 C70.84302063 25.11135468 71.98877563 25.51860779 73.16925049 25.9382019 C75.44802107 26.75466512 77.72343937 27.58054899 79.99530029 28.41604614 C85.5249167 30.4459352 91.03255703 32.33187684 96.69824219 33.94775391 C113.86928177 39.07165414 113.86928177 39.07165414 118.27220154 46.53988647 C119.88695641 49.86347064 121.26269221 53.26034841 122.61566162 56.69781494 C125.23590539 62.9481147 128.41561442 68.93447777 131.48523331 74.97326279 C133.48860359 78.92928601 135.45910687 82.90158338 137.43164062 86.87304688 C138.24125122 88.50059011 139.05090316 90.12811277 139.8605957 91.75561523 C141.505099 95.06276185 143.14846255 98.37047242 144.79125977 101.6784668 C146.80288272 105.72859943 148.81847038 109.77673901 150.83644676 113.82370949 C151.59582989 115.34863362 152.35369991 116.87431232 153.10994911 118.40079308 C158.12795885 128.57218689 158.12795885 128.57218689 163.93379211 138.30708313 C165.80050326 141.27103307 167.27628517 144.4177359 168.77734375 147.578125 C169.11117569 148.27081482 169.44500763 148.96350464 169.78895569 149.67718506 C170.8428427 151.86605454 171.89042655 154.05786429 172.9375 156.25 C178.62023452 168.10434843 178.62023452 168.10434843 184.37890625 179.921875 C184.83982666 180.8612793 185.30074707 181.80068359 185.77563477 182.76855469 C186.92679859 185.11331766 186.92679859 185.11331766 189 187 C189 187.66 189 188.32 189 189 C189.66 189.33 190.32 189.66 191 190 C191.27005859 189.41984131 191.54011719 188.83968262 191.81835938 188.24194336 C193.00729668 185.98615591 194.32983283 184.12991503 195.90625 182.12890625 C196.48101074 181.39526855 197.05577148 180.66163086 197.64794922 179.90576172 C198.25912598 179.13248535 198.87030273 178.35920898 199.5 177.5625 C200.76331779 175.95205582 202.02633624 174.34137678 203.2890625 172.73046875 C203.91458008 171.93431152 204.54009766 171.1381543 205.18457031 170.31787109 C207.7682964 167.01906859 210.32454995 163.69955887 212.875 160.375 C214.07769531 158.80878906 214.07769531 158.80878906 215.3046875 157.2109375 C216.14386719 156.11652344 216.14386719 156.11652344 217 155 C217.99 155.33 218.98 155.66 220 156 C221.11511164 181.36430778 222.1347296 206.73122278 222.99127197 232.10559082 C223.07974837 234.72353921 223.16905026 237.34145985 223.25921631 239.95935059 C223.50093509 247.00672083 223.72036067 254.05404099 223.91027832 261.10299683 C223.98939659 263.65762881 224.10180729 266.20745561 224.22949219 268.76000977 C224.50613214 276.66632063 223.7654255 281.46638105 219 287.8125 C217.90298903 289.40400717 216.80944107 290.99790505 215.71875 292.59375 C215.12449219 293.44453125 214.53023437 294.2953125 213.91796875 295.171875 C210.62418755 300.0286929 207.60543182 305.05614416 204.55908203 310.07015991 C195.98910649 324.16898464 195.98910649 324.16898464 192 330 C189.13522487 326.57142523 186.79396436 323.12061062 184.6015625 319.23046875 C183.96460449 318.10672852 183.32764648 316.98298828 182.67138672 315.82519531 C182.33814392 315.23275024 182.00490112 314.64030518 181.66156006 314.02990723 C179.88243406 310.86764512 178.08848285 307.71379509 176.296875 304.55859375 C175.93403412 303.91866486 175.57119324 303.27873596 175.19735718 302.61941528 C171.80209854 296.63628794 168.3488469 290.68783155 164.875 284.75 C164.30604004 283.77699951 163.73708008 282.80399902 163.15087891 281.80151367 C162.00686666 279.84598295 160.86250029 277.89065936 159.71777344 275.93554688 C156.80639299 270.96021451 153.90363588 265.97985472 151 261 C147.51383851 255.02219697 144.02675774 249.04494004 140.53515625 243.0703125 C134.53222975 232.79467502 128.55803449 222.50366447 122.625 212.1875 C117.50713886 203.29103111 112.31352536 194.4434719 107.0625 185.625 C101.26674776 175.89013429 95.59794566 166.09213708 90.00128174 156.24230957 C85.06874795 147.56599318 80.04322372 138.95105421 74.9375 130.375 C66.53114588 116.25457633 58.32869581 102.02106217 50.14550781 87.77050781 C42.55107845 74.55116707 34.87610696 61.38671743 27.07519531 48.28808594 C21.37203095 38.68613245 15.81761892 29.00346477 10.31469727 19.28564453 C7.64030883 14.57288611 4.96610913 9.88784479 2.04296875 5.32421875 C0 2 0 2 0 0 Z " fill="#FFFFFF" transform="translate(57,34)"/>
<path d="M0 0 C14.43859406 4.73253699 28.78344306 9.63526153 43 15 C43 15.66 43 16.32 43 17 C43.825 16.9175 44.65 16.835 45.5 16.75 C49.22279097 17.01591364 51.43245832 18.19585654 54.69750977 19.8878479 C58.81605182 21.87719193 63.14143508 23.26730102 67.46875 24.73046875 C68.47992889 25.07767471 69.49110779 25.42488068 70.53292847 25.78260803 C72.71294598 26.53070398 74.89379163 27.27639021 77.07537842 28.01989746 C82.97374923 30.03090877 88.86535067 32.06159788 94.7578125 34.08984375 C95.96152496 34.50368317 97.16523743 34.91752258 98.40542603 35.34390259 C109.75147297 39.24857613 121.06815509 43.23342457 132.375 47.25 C133.32773804 47.58828827 134.28047607 47.92657654 135.26208496 48.27511597 C139.24648753 49.69005767 143.23067996 51.1055878 147.21447754 52.52223206 C154.97679522 55.28246536 162.74164112 58.03552071 170.50743103 60.78596497 C218.34636394 77.72969734 218.34636394 77.72969734 238.32678223 84.92272949 C239.83846706 85.46687822 241.35042273 86.01027523 242.8626709 86.55285645 C244.8807531 87.27742312 246.89761685 88.00526839 248.9140625 88.734375 C250.5530249 89.32557129 250.5530249 89.32557129 252.22509766 89.92871094 C254.57311062 90.83519351 256.77851205 91.82261808 259 93 C257.62699382 96.65709179 255.97693772 99.95590808 254.015625 103.33203125 C253.41741943 104.36537598 252.81921387 105.3987207 252.20288086 106.46337891 C251.55843018 107.56858887 250.91397949 108.67379883 250.25 109.8125 C249.57338299 110.97819845 248.89703627 112.14405383 248.22094727 113.31005859 C246.48565246 116.30061581 244.74615498 119.28870216 243.00494385 122.27581787 C242.05268174 123.90961395 241.10126717 125.54390393 240.14990234 127.17822266 C235.53231971 135.11033706 230.90199475 143.03498357 226.27050781 150.95898438 C224.53393164 153.93065505 222.79798808 156.90269374 221.0625 159.875 C220.19782104 161.35577026 220.19782104 161.35577026 219.31567383 162.86645508 C215.05798331 170.16611374 210.83807169 177.48702436 206.625 184.8125 C200.59413499 195.29505802 194.46211484 205.71421516 188.27783203 216.10668945 C185.14001381 221.38000065 182.01893599 226.65762972 179 232 C178.67 232 178.34 232 178 232 C178 201.97 178 171.94 178 141 C175.69 140.67 173.38 140.34 171 140 C168.62480164 139.23245239 168.62480164 139.23245239 166.48706055 138.31689453 C165.66975464 137.97173294 164.85244873 137.62657135 164.01037598 137.27095032 C163.14456909 136.89536484 162.27876221 136.51977936 161.38671875 136.1328125 C160.46685181 135.74171799 159.54698486 135.35062347 158.59924316 134.94767761 C155.62528837 133.68119418 152.65642934 132.40321388 149.6875 131.125 C147.65244423 130.25594712 145.61704264 129.3877036 143.58129883 128.52026367 C139.56418805 126.80739711 135.54887261 125.09043405 131.53515625 123.36962891 C124.43007401 120.32491977 117.30956824 117.31719521 110.1875 114.3125 C108.16002408 113.45473943 106.13266319 112.59670686 104.10546875 111.73828125 C103.30262451 111.39837158 102.49978027 111.05846191 101.67260742 110.70825195 C101.12064697 110.47452881 100.56868652 110.24080566 100 110 C100 109.34 100 108.68 100 108 C96.16420752 110.84482325 93.41234138 113.80216252 90.5625 117.625 C89.70261545 118.76752399 88.84188545 119.90941199 87.98046875 121.05078125 C87.51302246 121.67291504 87.04557617 122.29504883 86.56396484 122.93603516 C83.54086123 126.92562584 80.45308144 130.86528107 77.375 134.8125 C76.15357211 136.38145302 74.93221191 137.95045875 73.7109375 139.51953125 C72.80734146 140.67972628 71.90371588 141.83989832 71 143 C69.3938164 140.5907246 68.12484223 138.34593852 66.86108398 135.75976562 C66.44402695 134.90878296 66.02696991 134.05780029 65.59727478 133.18103027 C65.15138504 132.26535278 64.7054953 131.34967529 64.24609375 130.40625 C63.78517838 129.46317993 63.324263 128.52010986 62.84938049 127.54846191 C61.87582956 125.55511975 60.90335796 123.56125013 59.93188477 121.56689453 C58.44264354 118.51055599 56.9491116 115.45634204 55.45507812 112.40234375 C54.51015875 110.46627169 53.56548884 108.53007785 52.62109375 106.59375 C52.17317978 105.67807251 51.72526581 104.76239502 51.26377869 103.81896973 C50.64292137 102.54249573 50.64292137 102.54249573 50.00952148 101.24023438 C49.64471176 100.49205444 49.27990204 99.74387451 48.90403748 98.97302246 C48 97 48 97 47 94 C46.01 93.505 46.01 93.505 45 93 C44.21864739 90.93596448 43.66104324 88.84161532 43.07421875 86.71484375 C42.11869045 84.29996314 41.08279691 82.47380773 39.68061829 80.30966187 C37.22137092 76.42049422 35.08231683 72.44868146 33.03588867 68.33056641 C32.67427643 67.61084656 32.31266418 66.89112671 31.94009399 66.14959717 C30.76205662 63.80222972 29.58980509 61.45203093 28.41796875 59.1015625 C27.59579934 57.45857248 26.77339255 55.81570123 25.95075989 54.17294312 C24.23613755 50.74663391 22.52439167 47.31890744 20.81469727 43.89013672 C18.61984013 39.48896746 16.41775317 35.09146159 14.21354198 30.69497108 C12.51812268 27.3113415 10.82650079 23.92582482 9.13604164 20.53971481 C8.32503095 18.91635746 7.51282731 17.29359555 6.69942284 15.67143631 C5.56812067 13.413888 4.44194722 11.15385551 3.31713867 8.89306641 C2.97901657 8.22087067 2.64089447 7.54867493 2.29252625 6.85610962 C0 2.22854108 0 2.22854108 0 0 Z " fill="#FFFFFF" transform="translate(176,77)"/>
<path d="M0 0 C99.99 0 199.98 0 303 0 C301.44615425 3.88461437 299.86235312 7.17185557 297.796875 10.76953125 C297.15298828 11.89407715 296.50910156 13.01862305 295.84570312 14.17724609 C295.14725555 15.38906664 294.44868494 16.60081629 293.75 17.8125 C293.03040748 19.06580805 292.31100885 20.31922744 291.59179688 21.57275391 C286.39265319 30.62436929 281.14890204 39.65011304 275.87011719 48.65551758 C275.34579102 49.55036865 274.82146484 50.44521973 274.28125 51.3671875 C273.44859619 52.6977417 273.44859619 52.6977417 272.59912109 54.05517578 C270.85416487 57.03632301 270.85416487 57.03632301 269.85791016 60.72216797 C268.40920272 65.01331229 266.83193005 68.39588027 263 71 C254.23382848 73.81870149 244.66237517 73.45316847 235.53556061 73.38720322 C233.36267278 73.37493037 231.19086075 73.38558144 229.01800537 73.40078735 C203.43932369 73.51342562 182.07932728 68.47572589 158.5703125 58.33789062 C149.93759167 54.65131674 141.05782266 51.6348777 132.20541382 48.525177 C126.99717569 46.68617706 121.80609829 44.79997634 116.61328125 42.91796875 C101.88071348 37.58984438 87.13671165 32.29361978 72.39269257 26.99729156 C68.96109991 25.76452096 65.52962598 24.53141997 62.09814453 23.29833984 C41.40042339 15.86093524 20.70113671 8.42789264 0 1 C0 0.67 0 0.34 0 0 Z " fill="#FFFFFF" transform="translate(186,77)"/>
<path d="M0 0 C6.34746831 2.01407653 12.4861393 4.35470476 18.6171875 6.94921875 C19.51382111 7.32552933 20.41045471 7.7018399 21.33425903 8.08955383 C24.182482 9.28578277 27.02876575 10.48654808 29.875 11.6875 C31.74466481 12.47360907 33.61445562 13.25941853 35.484375 14.04492188 C39.88887718 15.89603117 44.29190258 17.75061311 48.6942749 19.60678101 C56.12860165 22.74002558 63.56447228 25.86960677 71 29 C71.35109739 40.93646197 71.61582177 52.87165202 71.77718258 64.81226921 C71.85472272 70.3601291 71.95944564 75.90440075 72.1315918 81.45019531 C73.52468223 127.55106704 73.52468223 127.55106704 57.80081177 147.659729 C55.38288642 150.80197888 53.50241818 154.07509352 51.5625 157.53125 C50.37620497 159.52155204 49.18874226 161.51115865 48 163.5 C42.75249744 172.32016058 37.56011696 181.16920755 32.4375 190.0625 C31.83204346 191.11300537 31.22658691 192.16351074 30.6027832 193.24584961 C27.67719636 198.32840068 24.76079418 203.41602633 21.85862732 208.51197815 C20.47237039 210.94439756 19.08214962 213.37453893 17.69143677 215.80441284 C16.70558511 217.53082947 15.72565993 219.26062604 14.74584961 220.99047852 C14.15296143 222.02615967 13.56007324 223.06184082 12.94921875 224.12890625 C12.42674561 225.04744385 11.90427246 225.96598145 11.3659668 226.91235352 C10 229 10 229 8 230 C6.86479956 225.87435342 6.74136647 221.82561145 6.61108398 217.56982422 C6.58167725 216.72033203 6.55227051 215.87083984 6.52197266 214.99560547 C6.42573147 212.18209207 6.33577523 209.36841706 6.24609375 206.5546875 C6.18055412 204.5856938 6.11471795 202.61670994 6.04859924 200.6477356 C5.91060681 196.51019612 5.7756117 192.37257294 5.64282227 188.23486328 C5.47407492 182.98131697 5.29896244 177.72800795 5.12164211 172.4747448 C4.98465208 168.39937706 4.8506822 164.3239142 4.7176075 160.2484169 C4.65422099 158.31508893 4.59005074 156.38178647 4.52502251 154.44851303 C4.21249992 145.10098001 3.9645807 135.77170848 4.02368164 126.41845703 C4.05730704 120.66445302 3.82688725 115.01844498 3.26956177 109.29138184 C2.62726786 101.44889546 2.50157614 93.56591763 2.24609375 85.703125 C2.18044668 83.74077751 2.11461164 81.77843631 2.04859924 79.81610107 C1.91141346 75.71795671 1.7763407 71.61974982 1.64282227 67.52148438 C1.4729821 62.31284958 1.298104 57.10439882 1.12164211 51.89598465 C0.98497472 47.84643955 0.85091329 43.79681126 0.7176075 39.74715424 C0.65418371 37.82892078 0.59001137 35.9107119 0.52502251 33.99253082 C0.14268381 22.65595367 -0.08949156 11.34360266 0 0 Z " fill="#FFFFFF" transform="translate(280,192)"/>
<path d="M0 0 C-0.61548457 3.60263638 -2.0894072 5.69503247 -4.3125 8.5625 C-8.62496737 14.3407434 -12.46124032 20.35622116 -16.2590332 26.48266602 C-17.24234617 28.06282748 -18.25932522 29.62234805 -19.30224609 31.16381836 C-20.68134543 33.46767182 -21.56710218 35.41993294 -22.49853516 37.90063477 C-24.49939996 42.5590728 -26.59534684 46.28509129 -31 49 C-40.4626433 51.52164831 -50.71327577 50.78403361 -60.42749023 50.49353027 C-64.10102014 50.39986567 -67.77467474 50.39223735 -71.44921875 50.37695312 C-78.63561595 50.33458491 -85.81602134 50.19785833 -93 50 C-89.76421869 46.62851744 -86.79286138 44.64203584 -82.6015625 42.53125 C-81.97902588 42.21444778 -81.35648926 41.89764557 -80.71508789 41.57124329 C-79.38131664 40.89323395 -78.04583079 40.2185888 -76.70880127 39.54702759 C-73.17260836 37.77023074 -69.64939503 35.96802277 -66.125 34.16796875 C-65.42235016 33.8098259 -64.71970032 33.45168304 -63.99575806 33.08268738 C-58.14829964 30.09504264 -52.37239751 26.98848048 -46.625 23.8125 C-37.67850055 18.8763548 -28.64192098 14.13078794 -19.55908203 9.45043945 C-14.22495237 6.69786101 -8.94768991 3.88977453 -3.75317383 0.88061523 C-2 0 -2 0 0 0 Z " fill="#FFFFFF" transform="translate(524,24)"/>
<path d="M0 0 C3.7125 -0.061875 7.425 -0.12375 11.25 -0.1875 C12.4143457 -0.21481201 13.57869141 -0.24212402 14.77832031 -0.27026367 C16.16422363 -0.28150269 16.16422363 -0.28150269 17.578125 -0.29296875 C18.52075195 -0.3086792 19.46337891 -0.32438965 20.43457031 -0.34057617 C23.48719151 0.06467759 24.84412231 0.81869626 27 3 C27.25 6.4375 27.25 6.4375 27 10 C26.84807702 13.85368781 26.84807702 13.85368781 27.6875 16.9375 C28.07072132 20.6930689 27.2712453 22.05579313 25 25 C22.44276771 26.27861615 20.63262898 26.11336609 17.7734375 26.09765625 C16.84450684 26.09515869 15.91557617 26.09266113 14.95849609 26.09008789 C13.77594238 26.08098389 12.59338867 26.07187988 11.375 26.0625 C5.744375 26.0315625 5.744375 26.0315625 0 26 C0 17.42 0 8.84 0 0 Z M5 5 C5 10.28 5 15.56 5 21 C7.59875 21.04125 10.1975 21.0825 12.875 21.125 C14.10065674 21.15231201 14.10065674 21.15231201 15.35107422 21.18017578 C17.23495049 21.19477217 19.11869312 21.09943482 21 21 C21.66 20.34 22.32 19.68 23 19 C23 18.01 23 17.02 23 16 C20.11584117 14.55792059 17.58278472 14.90605113 14.375 14.9375 C12.59222656 14.95103516 12.59222656 14.95103516 10.7734375 14.96484375 C9.40058594 14.98224609 9.40058594 14.98224609 8 15 C8 13.35 8 11.7 8 10 C12.29 10 16.58 10 21 10 C21.33 8.68 21.66 7.36 22 6 C20.81147145 4.58225162 20.81147145 4.58225162 17.40234375 4.90234375 C15.91402745 4.90808728 14.42573704 4.92110109 12.9375 4.9375 C9.0084375 4.9684375 9.0084375 4.9684375 5 5 Z " fill="#F0F0EE" transform="translate(310,449)"/>
<path d="M0 0 C1.65 0 3.3 0 5 0 C8.3 5.94 11.6 11.88 15 18 C18.52770169 12.65171646 18.52770169 12.65171646 17.19921875 9.296875 C16.70035156 8.45640625 16.20148438 7.6159375 15.6875 6.75 C13 2.09448819 13 2.09448819 13 0 C14.65 0 16.3 0 18 0 C21.3 5.94 24.6 11.88 28 18 C30.91888782 12.45137714 30.91888782 12.45137714 33.83374023 6.90063477 C34.19669189 6.21283936 34.55964355 5.52504395 34.93359375 4.81640625 C35.30540771 4.10943604 35.67722168 3.40246582 36.06030273 2.67407227 C37 1 37 1 38 0 C39.66617115 -0.04063832 41.33388095 -0.042721 43 0 C40.68649567 4.67867501 38.35791288 9.34912857 36.00439453 14.0078125 C35.16181656 15.67904153 34.32791619 17.35464165 33.49609375 19.03125 C33.08488281 19.8253125 32.67367187 20.619375 32.25 21.4375 C31.90453125 22.11683594 31.5590625 22.79617188 31.203125 23.49609375 C30 25 30 25 26 26 C24.35 23.69 22.7 21.38 21 19 C19.68 21.31 18.36 23.62 17 26 C15.68 26 14.36 26 13 26 C10.82658104 22.04533792 8.66241799 18.08568659 6.5 14.125 C5.87996094 12.99707031 5.25992188 11.86914062 4.62109375 10.70703125 C4.03457031 9.63066406 3.44804687 8.55429687 2.84375 7.4453125 C2.29912109 6.45031738 1.75449219 5.45532227 1.19335938 4.43017578 C0 2 0 2 0 0 Z " fill="#E4E6E0" transform="translate(218,449)"/>
<path d="M0 0 C1.03125 0.01804687 2.0625 0.03609375 3.125 0.0546875 C5.66761064 0.10177288 8.20833162 0.1675195 10.75 0.25 C10.75 1.9 10.75 3.55 10.75 5.25 C4.15 5.58 -2.45 5.91 -9.25 6.25 C-9.25 7.24 -9.25 8.23 -9.25 9.25 C-7.47882813 9.30607422 -7.47882813 9.30607422 -5.671875 9.36328125 C-4.11455212 9.42895149 -2.55726186 9.49539847 -1 9.5625 C-0.22269531 9.58505859 0.55460937 9.60761719 1.35546875 9.63085938 C4.74549176 9.79021943 7.20582259 9.9762213 10.265625 11.515625 C12.13102798 13.69520111 12.28840736 14.84055457 12.25 17.6875 C12.2603125 18.44933594 12.270625 19.21117187 12.28125 19.99609375 C11.54687668 23.11178054 10.21142568 24.23921018 7.75 26.25 C5.18457031 26.70410156 5.18457031 26.70410156 2.328125 26.640625 C0.79091797 26.62128906 0.79091797 26.62128906 -0.77734375 26.6015625 C-2.37255859 26.55128906 -2.37255859 26.55128906 -4 26.5 C-5.07894531 26.48195313 -6.15789062 26.46390625 -7.26953125 26.4453125 C-9.93058788 26.39821415 -12.58984254 26.332456 -15.25 26.25 C-15.25 24.6 -15.25 22.95 -15.25 21.25 C-7.66 20.92 -0.07 20.59 7.75 20.25 C7.42 18.93 7.09 17.61 6.75 16.25 C4.87054688 16.21132813 4.87054688 16.21132813 2.953125 16.171875 C1.30204877 16.11558831 -0.34899155 16.0582411 -2 16 C-2.825 15.98582031 -3.65 15.97164063 -4.5 15.95703125 C-10.6081198 15.7107361 -10.6081198 15.7107361 -13.796875 13.421875 C-15.94407836 10.21261407 -15.78835027 8.01845188 -15.25 4.25 C-11.81055616 -1.45543037 -5.88792554 -0.19427165 0 0 Z " fill="#F5F6F3" transform="translate(464.25,448.75)"/>
<path d="M0 0 C0.79921875 0.00644531 1.5984375 0.01289063 2.421875 0.01953125 C3.246875 0.03628906 4.071875 0.05304688 4.921875 0.0703125 C5.76234375 0.07933594 6.6028125 0.08835937 7.46875 0.09765625 C9.53658104 0.12115433 11.60426495 0.15702342 13.671875 0.1953125 C13.671875 1.8453125 13.671875 3.4953125 13.671875 5.1953125 C12.47949219 5.24429687 11.28710938 5.29328125 10.05859375 5.34375 C8.49216432 5.41878854 6.92575921 5.4943359 5.359375 5.5703125 C4.57369141 5.60125 3.78800781 5.6321875 2.97851562 5.6640625 C1.8425293 5.72207031 1.8425293 5.72207031 0.68359375 5.78125 C-0.01290283 5.8126709 -0.70939941 5.8440918 -1.42700195 5.87646484 C-3.65345239 6.11649503 -3.65345239 6.11649503 -6.328125 8.1953125 C-7.16384501 11.66676483 -7.68511227 14.15181126 -6.515625 17.5703125 C-5.40826773 19.34619494 -5.40826773 19.34619494 -3.328125 20.1953125 C-0.95689254 20.42561206 1.41929443 20.60651192 3.796875 20.7578125 C5.07820312 20.84160156 6.35953125 20.92539062 7.6796875 21.01171875 C9.16082031 21.10259766 9.16082031 21.10259766 10.671875 21.1953125 C10.671875 19.2153125 10.671875 17.2353125 10.671875 15.1953125 C6.711875 15.1953125 2.751875 15.1953125 -1.328125 15.1953125 C-1.328125 13.5453125 -1.328125 11.8953125 -1.328125 10.1953125 C3.951875 10.1953125 9.231875 10.1953125 14.671875 10.1953125 C14.671875 15.4753125 14.671875 20.7553125 14.671875 26.1953125 C11.62924233 26.30376277 8.59051296 26.38283313 5.546875 26.4453125 C4.6909375 26.47882813 3.835 26.51234375 2.953125 26.546875 C-2.65783013 26.63319739 -5.92964102 26.03798181 -10.328125 22.1953125 C-13.579967 16.74060979 -13.77586142 13.17928971 -12.328125 7.1953125 C-9.16838545 2.18331184 -5.94202201 -0.08488603 0 0 Z " fill="#F4F6F4" transform="translate(521.328125,448.8046875)"/>
<path d="M0 0 C3.01125 -0.0825 6.0225 -0.165 9.125 -0.25 C10.06230957 -0.28641602 10.99961914 -0.32283203 11.96533203 -0.36035156 C17.47530702 -0.43311375 20.68295971 0.24108174 25 4 C27.55327716 8.06928547 28.30718996 10.96037343 27.5 15.625 C26.34354653 19.86051082 24.46130667 22.23095466 21 25 C18.65147472 26.17426264 17.26225935 26.11508173 14.6484375 26.09765625 C13.88192871 26.09515869 13.11541992 26.09266113 12.32568359 26.09008789 C11.35195801 26.08098389 10.37823242 26.07187988 9.375 26.0625 C6.28125 26.041875 3.1875 26.02125 0 26 C0 17.42 0 8.84 0 0 Z M5 5 C5 10.28 5 15.56 5 21 C7.0625 21.061875 9.125 21.12375 11.25 21.1875 C12.41015625 21.22230469 13.5703125 21.25710938 14.765625 21.29296875 C18.26606824 20.97589962 19.58609802 20.50607962 22 18 C23.10373378 14.02655839 23.41543583 11.91000228 21.6875 8.125 C20.17274837 5.9104069 20.17274837 5.9104069 18 5 C13.66396021 4.8606671 9.33919329 4.95745889 5 5 Z " fill="#EEEEEB" transform="translate(371,449)"/>
<path d="M0 0 C14.52 0 29.04 0 44 0 C42.30304042 3.39391915 40.59521177 6.25639176 38.375 9.3125 C37.74335938 10.21613281 37.11171875 11.11976563 36.4609375 12.05078125 C34 14 34 14 30.296875 14.0078125 C25.612819 13.10141442 21.26933515 11.38173993 16.875 9.5625 C15.33124581 8.93752439 13.78698481 8.31379903 12.2421875 7.69140625 C11.51741211 7.39379395 10.79263672 7.09618164 10.04589844 6.78955078 C7.79731552 5.88580184 7.79731552 5.88580184 4.5703125 5.02734375 C2 4 2 4 0 0 Z " fill="#FFFFFF" transform="translate(401,152)"/>
<path d="M0 0 C3.65910492 0.42768121 5.36848853 2.01450035 7.890625 4.59765625 C8.59960938 5.31630859 9.30859375 6.03496094 10.0390625 6.77539062 C10.76867187 7.53013672 11.49828125 8.28488281 12.25 9.0625 C12.99507812 9.82111328 13.74015625 10.57972656 14.5078125 11.36132812 C16.34536347 13.23421662 18.17358809 15.11624725 20 17 C20.33 11.39 20.66 5.78 21 0 C22.65 0 24.3 0 26 0 C26 8.25 26 16.5 26 25 C24.68 25.33 23.36 25.66 22 26 C20.30834961 24.86010742 20.30834961 24.86010742 18.65234375 23.10546875 C18.04712891 22.47962891 17.44191406 21.85378906 16.81835938 21.20898438 C16.19767578 20.54189453 15.57699219 19.87480469 14.9375 19.1875 C13.69869872 17.88733395 12.45788849 16.58907837 11.21484375 15.29296875 C10.66948975 14.7105542 10.12413574 14.12813965 9.56225586 13.52807617 C7.87345882 11.78184077 7.87345882 11.78184077 5 10 C4.67 15.28 4.34 20.56 4 26 C2.35 26 0.7 26 -1 26 C-1.02886751 21.85418113 -1.04675327 17.70838784 -1.0625 13.5625 C-1.07087891 12.37849609 -1.07925781 11.19449219 -1.08789062 9.97460938 C-1.09111328 8.84990234 -1.09433594 7.72519531 -1.09765625 6.56640625 C-1.10289307 5.52427979 -1.10812988 4.48215332 -1.11352539 3.40844727 C-1 1 -1 1 0 0 Z " fill="#E1DFDA" transform="translate(551,449)"/>
<path d="M0 0 C3.65910492 0.42768121 5.36848853 2.01450035 7.890625 4.59765625 C8.59960938 5.31630859 9.30859375 6.03496094 10.0390625 6.77539062 C10.76867187 7.53013672 11.49828125 8.28488281 12.25 9.0625 C12.99507812 9.82111328 13.74015625 10.57972656 14.5078125 11.36132812 C16.34536347 13.23421662 18.17358809 15.11624725 20 17 C20.33 11.39 20.66 5.78 21 0 C22.65 0 24.3 0 26 0 C26 8.25 26 16.5 26 25 C24.68 25.33 23.36 25.66 22 26 C20.30834961 24.86010742 20.30834961 24.86010742 18.65234375 23.10546875 C18.04712891 22.47962891 17.44191406 21.85378906 16.81835938 21.20898438 C16.19767578 20.54189453 15.57699219 19.87480469 14.9375 19.1875 C13.69869872 17.88733395 12.45788849 16.58907837 11.21484375 15.29296875 C10.66948975 14.7105542 10.12413574 14.12813965 9.56225586 13.52807617 C7.87345882 11.78184077 7.87345882 11.78184077 5 10 C4.67 15.28 4.34 20.56 4 26 C2.35 26 0.7 26 -1 26 C-1.02886751 21.85418113 -1.04675327 17.70838784 -1.0625 13.5625 C-1.07087891 12.37849609 -1.07925781 11.19449219 -1.08789062 9.97460938 C-1.09111328 8.84990234 -1.09433594 7.72519531 -1.09765625 6.56640625 C-1.10289307 5.52427979 -1.10812988 4.48215332 -1.11352539 3.40844727 C-1 1 -1 1 0 0 Z " fill="#E1DFDA" transform="translate(118,449)"/>
<path d="M0 0 C7.59 0 15.18 0 23 0 C23 1.65 23 3.3 23 5 C17.06 5 11.12 5 5 5 C5 10.28 5 15.56 5 21 C10.94 21 16.88 21 23 21 C23 22.65 23 24.3 23 26 C15.41 26 7.82 26 0 26 C0 17.42 0 8.84 0 0 Z " fill="#F2F4F2" transform="translate(412,449)"/>
<path d="M0 0 C7.59 0 15.18 0 23 0 C23 1.65 23 3.3 23 5 C17.06 5 11.12 5 5 5 C5 10.28 5 15.56 5 21 C10.94 21 16.88 21 23 21 C23 22.65 23 24.3 23 26 C15.41 26 7.82 26 0 26 C0 17.42 0 8.84 0 0 Z " fill="#F2F4F2" transform="translate(273,449)"/>
<path d="M0 0 C7.92 0 15.84 0 24 0 C24 1.65 24 3.3 24 5 C20.7 5 17.4 5 14 5 C14 11.93 14 18.86 14 26 C12.35 26 10.7 26 9 26 C9 19.07 9 12.14 9 5 C6.03 5 3.06 5 0 5 C0 3.35 0 1.7 0 0 Z " fill="#ECECEC" transform="translate(23,449)"/>
<path d="M0 0 C-4.56630734 4.87072783 -9.74976539 8.89156398 -15 13 C-14.5153125 13.35827881 -14.030625 13.71655762 -13.53125 14.08569336 C-11.35169924 15.69966117 -9.1758162 17.31850162 -7 18.9375 C-6.236875 19.50146484 -5.47375 20.06542969 -4.6875 20.64648438 C-3.965625 21.18466797 -3.24375 21.72285156 -2.5 22.27734375 C-1.8296875 22.77484131 -1.159375 23.27233887 -0.46875 23.78491211 C0.25828125 24.38638062 0.25828125 24.38638062 1 25 C1 25.33 1 25.66 1 26 C-4.00208826 26.53119521 -6.84507752 26.58061635 -10.84375 23.375 C-12.08050029 22.26981889 -13.29918504 21.14412412 -14.5 20 C-15.13164062 19.42765625 -15.76328125 18.8553125 -16.4140625 18.265625 C-17.95883456 16.86128676 -19.48174245 15.43296218 -21 14 C-20.16749904 9.38262353 -17.45557099 7.4871476 -13.875 4.75 C-13.318125 4.29109375 -12.76125 3.8321875 -12.1875 3.359375 C-8.08036596 0.17965832 -5.33740785 -0.51608524 0 0 Z " fill="#E5E7E2" transform="translate(185,449)"/>
<path d="M0 0 C1.32 0 2.64 0 4 0 C4 8.58 4 17.16 4 26 C2.68 26 1.36 26 0 26 C0 22.37 0 18.74 0 15 C-4.29 15 -8.58 15 -13 15 C-13 13.35 -13 11.7 -13 10 C-8.71 10 -4.42 10 0 10 C0 6.7 0 3.4 0 0 Z " fill="#FDFFF6" transform="translate(80,449)"/>
<path d="M0 0 C1.65 0 3.3 0 5 0 C5 8.58 5 17.16 5 26 C3.35 26 1.7 26 0 26 C0 17.42 0 8.84 0 0 Z " fill="#D3D6D6" transform="translate(490,449)"/>
<path d="M0 0 C1.65 0 3.3 0 5 0 C5 8.58 5 17.16 5 26 C3.35 26 1.7 26 0 26 C0 17.42 0 8.84 0 0 Z " fill="#E2DFDA" transform="translate(158,449)"/>
<path d="M0 0 C1.65 0 3.3 0 5 0 C5 8.58 5 17.16 5 26 C3.35 26 1.7 26 0 26 C0 17.42 0 8.84 0 0 Z " fill="#D3D6D6" transform="translate(98,449)"/>
<path d="M0 0 C1.65 0 3.3 0 5 0 C5 8.58 5 17.16 5 26 C3.35 26 1.7 26 0 26 C0 17.42 0 8.84 0 0 Z " fill="#E2DFDA" transform="translate(59,449)"/>
<path d="M0 0 C4.62 0 9.24 0 14 0 C14 1.65 14 3.3 14 5 C9.38 5 4.76 5 0 5 C0 3.35 0 1.7 0 0 Z " fill="#FAFFF7" transform="translate(420,459)"/>
<path d="M0 0 C4.62 0 9.24 0 14 0 C14 1.65 14 3.3 14 5 C9.38 5 4.76 5 0 5 C0 3.35 0 1.7 0 0 Z " fill="#FAFFF7" transform="translate(281,459)"/>
</svg>
